<svg width="300" height="300" viewBox="0 0 300 300" fill="none" xmlns="http://www.w3.org/2000/svg">
<rect width="300" height="300" rx="60" fill="white"/>
<path d="M188.032 68.8187C174.34 83.9869 165.572 92.6945 156.564 99.8573L153.561 102.104L160.527 109.829L167.614 117.553L165.692 121.767C164.731 124.014 160.407 128.93 156.323 132.441C152.12 136.092 147.796 140.025 146.595 141.148C143.232 144.379 137.827 145.221 136.986 142.553C136.265 140.446 138.908 127.666 143.352 113.059C144.673 108.424 145.754 103.228 145.754 101.402C145.754 98.7337 145.153 98.1719 141.67 98.1719C136.505 98.1719 130.14 100.7 127.017 104.071C121.252 110.11 114.285 137.356 109.721 171.906C107.679 188.198 105.277 200.557 100.112 221.905C97.8303 231.034 98.7912 233 105.517 233C112.484 233 116.928 228.506 116.928 221.343C116.928 209.826 126.656 183.423 132.902 177.945C138.187 173.31 140.349 172.468 142.631 174.434C143.712 175.417 147.435 186.091 151.039 198.169C157.044 219.096 161.608 229.348 165.812 231.174C167.734 232.017 182.988 223.59 182.988 221.764C182.988 221.062 181.066 217.691 178.664 214.04C176.382 210.388 173.379 205.192 172.178 202.383C169.776 196.765 163.77 166.99 163.77 160.389C163.77 157.019 166.172 153.508 177.342 140.727C184.669 132.16 192.596 123.452 194.758 121.345C199.442 116.711 199.803 112.076 195.479 108.705C193.797 107.441 191.395 105.194 190.074 103.649C187.912 101.121 187.792 100.7 189.714 96.3461C190.915 93.9585 192.716 90.3069 193.797 88.3407C204.727 69.9423 209.652 58.9875 208.931 55.055C207.49 48.8754 203.766 51.4034 188.032 68.8187Z" fill="black"/>
<path d="M63.0008 74.1411C56.3252 77.0689 53.5835 79.0207 49.0537 84.0397C48.3384 84.7368 45.7159 88.501 43.0934 92.4047C40.4708 96.1689 37.9675 99.6543 37.6099 100.073C35.8218 102.024 29.2655 117.081 27.1198 124.61C21.3979 144.546 21.6363 163.647 27.835 185.535C32.9609 203.799 42.6165 213 56.5636 213C62.6431 213 66.4577 211.327 74.0869 205.332C83.7426 197.804 95.9016 182.747 100.193 172.987C101.266 170.617 103.531 162.113 105.2 154.166C107.941 141.619 108.299 137.715 107.822 122.379C107.465 106.486 107.107 104.116 103.769 95.8901C99.1202 84.4579 92.087 75.9535 84.6962 73.0258C77.0671 70.098 71.9412 70.2375 63.0008 74.1411ZM77.6631 105.928C81.5969 108.019 86.0075 117.918 87.5572 127.816C89.9413 143.013 83.8618 164.762 74.3253 174.939C68.4842 181.213 59.4246 185.814 55.2524 184.559C47.2656 182.328 42.4973 173.266 42.4973 160.719C42.4973 138.552 53.5835 114.154 66.9346 106.904C72.6564 103.837 73.6101 103.697 77.6631 105.928Z" fill="black"/>
<path d="M234.738 84.9702C225.93 90.297 225.81 90.4372 215.916 101.792C207.35 111.885 201.68 122.678 197.216 137.958C191.063 159.265 190.218 183.095 195.406 196.553C201.077 211.412 210.608 218 226.896 218C235.462 218 238.116 217.439 243.183 214.496C249.578 210.851 257.179 203.141 261.401 195.992C265.865 188.562 271.174 171.461 273.949 155.34C278.051 131.369 275.879 107.679 268.52 94.6426C264.417 87.3533 256.213 82.0265 248.25 81.1854C242.821 80.6247 240.77 81.1854 234.738 84.9702ZM254.886 120.295C269.123 135.715 258.023 182.114 237.151 194.45C230.877 198.095 218.812 197.534 213.865 193.329C202.886 183.796 208.074 148.191 223.035 129.127C229.429 121.136 238.237 115.669 245.114 115.669C249.819 115.669 251.387 116.37 254.886 120.295Z" fill="black"/>
</svg>
