<svg width="1638" height="851" viewBox="0 0 1638 851" fill="none" xmlns="http://www.w3.org/2000/svg">
<path d="M873.322 7.01712C857.39 18.2036 842.474 39.8985 832.644 66.0002C809.593 127.356 785.525 230.746 778.068 301.593C773.322 345.322 773.322 354.814 778.068 391.424C780.779 413.797 784.169 441.254 785.186 452.441C786.542 463.627 788.915 474.814 790.949 476.848C797.051 484.305 815.695 485.661 827.898 479.559C852.983 466.339 858.407 453.458 857.729 409.051C857.39 371.085 861.118 350.746 871.288 339.22C879.424 330.068 883.83 332.102 886.881 345.661C889.932 359.559 906.881 381.593 919.424 388.373C926.881 392.102 935.356 393.458 945.864 392.102C958.407 390.746 963.491 388.034 972.305 377.526C988.915 358.881 987.559 348.034 966.542 328.034L949.593 311.763V284.983V257.865L972.305 238.204C1031.63 186.339 1035.69 181.254 1027.56 166.339C1015.69 143.966 959.424 176.17 891.966 244.305C880.441 256.17 867.22 270.068 862.813 275.492C858.068 280.915 853.661 284.644 852.644 283.966C849.593 280.576 874.339 153.119 885.186 117.187C888.576 105.661 896.373 78.2035 902.135 56.1696C911.627 18.8815 911.966 15.1527 907.22 7.69507C900.441 -2.13544 886.881 -2.4744 873.322 7.01712Z" fill="white"/>
<path d="M479.762 61.5933C465.186 77.8645 458.067 91.7628 414.339 187.017C400.44 217.865 385.186 250.746 371.288 280.237C364.847 293.797 359.762 306 359.762 308.034C359.762 309.729 358.745 311.763 357.39 312.441C355.695 312.78 351.288 320.915 347.22 330.407C343.491 339.559 332.983 363.288 324.508 382.271C308.576 418.204 307.898 426.678 320.779 431.763C335.356 437.187 355.356 419.22 370.61 386.339C376.373 374.136 389.254 346.678 399.762 325.322C409.932 303.966 423.491 275.492 429.593 262.61C440.101 240.237 440.779 239.559 440.779 250.746C440.779 257.187 438.745 283.966 436.034 310.068C428.915 379.22 429.254 398.204 438.067 407.017C446.542 415.492 459.762 414.136 475.356 402.949C489.932 392.78 496.034 375.492 498.745 337.187C500.44 318.542 504.847 269.729 508.915 228.712C517.051 146 517.051 83.2882 508.576 66.0001C502.474 52.7798 489.254 50.7459 479.762 61.5933Z" fill="white"/>
<path d="M214 67.0169C105.864 90.0678 0.44043 174.136 0.44043 238.203C0.44043 254.475 1.79636 257.864 9.25399 263.966C19.7625 272.441 35.0167 273.119 42.4743 266C45.5252 262.949 50.6099 254.136 53.9998 246.339C74.6777 200.915 166.203 129.39 216.712 118.881C246.542 112.78 277.39 114.136 291.966 122.271C315.017 135.153 316.373 150.068 295.695 168.034C276.712 184.983 260.44 190.068 216.712 192.78C171.627 195.83 163.491 197.864 141.118 213.458C115.356 231.085 82.4743 283.288 88.915 295.491C90.6099 298.881 93.6608 301.593 95.6947 301.593C97.7286 301.593 109.932 291.424 122.813 278.881C149.254 253.458 149.593 253.458 196.034 260.915C220.779 264.983 225.864 264.983 244.508 259.898C256.373 256.508 266.203 254.475 267.22 255.153C270.271 258.203 228.915 292.102 190.271 318.542C145.186 349.051 123.83 359.559 74.3387 375.83C48.915 384.305 39.7625 389.051 34.3387 396.508C15.0167 423.627 38.4065 457.525 76.0337 457.525C100.44 457.525 157.051 433.797 203.152 404.305C230.61 387.017 287.559 339.559 307.898 317.186C362.135 258.203 383.491 196.169 369.254 139.559C361.796 109.051 336.373 77.5254 311.627 68.0339C293.322 61.2542 244.508 60.5762 214 67.0169Z" fill="white"/>
<path d="M639.424 164.983C618.407 175.83 573.661 216.508 555.695 240.576C547.559 251.763 533.661 277.186 520.441 306.678C516.373 315.491 514.339 328.034 514.339 343.966C514.339 403.966 561.458 444.644 625.525 439.559C658.407 436.847 672.644 431.085 704.508 407.356C742.474 378.881 765.186 346.339 752.644 338.542C743.83 333.119 731.966 335.491 719.424 345.322C692.983 366 651.966 381.254 631.966 377.525C625.864 376.169 620.78 374.135 620.78 372.78C620.78 371.424 617.051 369.051 612.305 368.034C602.813 365.661 580.102 344.305 580.102 337.525C580.102 330.407 591.627 328.034 639.424 325.661C694.339 322.61 714.678 316.169 736.373 294.474C765.864 265.322 775.017 229.39 760.441 200.915C745.525 172.441 718.407 159.559 673.322 159.559C658.068 159.559 645.864 161.593 639.424 164.983ZM690.271 228.034C704.508 237.186 707.22 240.576 707.22 249.051C707.22 264.305 689.254 271.763 644.508 274.813C624.508 276.169 602.813 279.559 595.695 282.61C588.237 285.661 581.458 287.356 580.441 286.339C577.051 282.61 598.407 247.356 610.61 235.83C634.678 213.457 663.83 210.746 690.271 228.034Z" fill="white"/>
<path d="M1163.15 177.525C1120.44 188.373 1086.88 198.542 1076.03 204.644C1057.05 215.152 1014 249.39 1014 254.135C1014 259.22 1026.54 261.254 1039.76 257.864C1047.22 256.169 1064.17 251.424 1077.73 247.356C1091.63 243.288 1103.49 240.576 1104.17 241.593C1104.85 242.271 1101.46 257.864 1096.71 276.508C1074.68 359.559 1069.93 390.407 1077.39 405.661C1090.61 433.458 1130.27 417.864 1145.53 378.542C1154 358.203 1167.9 303.627 1176.71 257.525C1181.8 231.424 1184.85 223.966 1191.97 217.525C1196.71 213.457 1203.49 210.068 1206.54 210.068C1216.71 210.068 1244.85 197.864 1256.71 188.373C1265.19 181.593 1268.24 176.508 1268.24 169.39C1268.24 159.22 1267.9 159.22 1250.61 159.559C1240.78 159.559 1201.46 167.695 1163.15 177.525Z" fill="white"/>
<path d="M1580.1 167.356C1521.8 191.424 1485.86 221.254 1460.44 267.017C1430.27 320.237 1429.59 356.508 1458.75 372.78C1503.15 397.864 1578.41 351.085 1613.66 276.508C1638.75 223.966 1643.49 193.797 1630.27 174.136C1618.41 156.847 1608.24 155.492 1580.1 167.356ZM1561.8 246C1560.44 250.746 1558.07 256.508 1556.03 258.542C1554.34 260.915 1547.56 270.746 1541.12 280.915C1525.86 304.983 1515.69 312.102 1515.69 298.203C1515.69 289.729 1528.58 268.712 1545.19 250.746C1559.08 235.153 1564.85 233.458 1561.8 246Z" fill="white"/>
<path d="M1347.9 169.051C1299.42 180.915 1257.73 208.712 1241.12 240.576C1234.68 252.78 1194.34 384.305 1191.63 401.593L1189.59 416.847H1200.78C1219.42 416.508 1241.8 411.085 1244.85 406.339C1246.54 403.627 1250.27 394.814 1253.32 386.339C1267.22 346.678 1269.25 344.305 1289.59 339.559C1314 334.136 1370.27 309.729 1400.44 291.763C1428.91 274.814 1460.1 241.254 1465.19 222.271C1468.58 210.407 1467.9 206.678 1462.81 196.508C1446.2 165.661 1403.15 155.491 1347.9 169.051ZM1396.71 217.186C1402.47 219.22 1407.22 222.271 1407.22 223.966C1407.22 226.678 1364.51 248.034 1324.17 266C1316.71 269.051 1306.2 273.797 1300.78 276.508C1295.36 279.22 1290.27 280.576 1289.25 279.559C1288.24 278.881 1291.29 267.695 1295.69 255.152C1304.51 230.407 1308.24 227.017 1338.75 218.542C1359.08 213.119 1383.15 212.441 1396.71 217.186Z" fill="white"/>
<path d="M957.051 454.475C918.406 491.085 893.661 512.102 868.237 529.39L859.762 534.814L879.423 553.458L899.423 572.102L894 582.271C891.288 587.695 879.084 599.559 867.559 608.034C855.695 616.847 843.491 626.339 840.101 629.051C830.61 636.847 815.356 638.881 812.983 632.441C810.949 627.356 818.406 596.508 830.949 561.254C834.678 550.068 837.728 537.525 837.728 533.119C837.728 526.678 836.034 525.322 826.203 525.322C811.627 525.322 793.661 531.424 784.847 539.559C768.576 554.136 748.915 619.898 736.034 703.288C730.271 742.61 723.491 772.441 708.915 823.966C702.474 846 705.186 850.746 724.169 850.746C743.83 850.746 756.373 839.898 756.373 822.61C756.373 794.814 783.83 731.085 801.457 717.864C816.373 706.678 822.474 704.644 828.915 709.39C831.966 711.763 842.474 737.525 852.644 766.678C869.593 817.186 882.474 841.932 894.339 846.339C899.762 848.373 942.813 828.034 942.813 823.627C942.813 821.932 937.389 813.797 930.61 804.983C924.169 796.169 915.695 783.627 912.305 776.847C905.525 763.288 888.576 691.424 888.576 675.492C888.576 667.356 895.356 658.881 926.881 628.034C947.559 607.356 969.932 586.339 976.034 581.254C989.254 570.068 990.271 558.881 978.067 550.746C973.322 547.695 966.542 542.271 962.813 538.542C956.712 532.441 956.373 531.424 961.796 520.915C965.186 515.153 970.271 506.339 973.322 501.593C1004.17 457.186 1018.07 430.746 1016.03 421.254C1011.97 406.339 1001.46 412.441 957.051 454.475Z" fill="white"/>
<path d="M604.508 465.661C585.525 472.78 577.729 477.525 564.847 489.729C562.814 491.424 555.356 500.576 547.898 510.068C540.441 519.22 533.322 527.695 532.305 528.712C527.22 533.458 508.576 570.068 502.475 588.373C486.203 636.847 486.881 683.288 504.508 736.508C519.085 780.915 546.542 803.288 586.203 803.288C603.491 803.288 614.339 799.22 636.034 784.644C663.491 766.339 698.068 729.729 710.271 706C713.322 700.237 719.763 679.559 724.508 660.237C732.305 629.729 733.322 620.237 731.966 582.949C730.949 544.305 729.932 538.542 720.441 518.542C707.22 490.746 687.22 470.068 666.203 462.949C644.508 455.83 629.932 456.169 604.508 465.661ZM646.203 542.949C657.39 548.034 669.932 572.102 674.339 596.169C681.119 633.119 663.83 686 636.712 710.746C620.102 726 594.339 737.186 582.475 734.136C559.763 728.712 546.203 706.678 546.203 676.169C546.203 622.271 577.729 562.949 615.695 545.322C631.966 537.864 634.678 537.525 646.203 542.949Z" fill="white"/>
<path d="M1090.61 491.763C1065.86 504.644 1065.52 504.983 1037.73 532.441C1013.66 556.847 997.728 582.949 985.186 619.898C967.898 671.424 965.525 729.051 980.101 761.593C996.033 797.525 1022.81 813.458 1068.58 813.458C1092.64 813.458 1100.1 812.102 1114.34 804.983C1132.3 796.17 1153.66 777.525 1165.52 760.237C1178.07 742.271 1192.98 700.915 1200.78 661.932C1212.3 603.966 1206.2 546.678 1185.52 515.153C1174 497.525 1150.95 484.644 1128.58 482.61C1113.32 481.254 1107.56 482.61 1090.61 491.763ZM1147.22 577.186C1187.22 614.475 1156.03 726.678 1097.39 756.508C1079.76 765.322 1045.86 763.966 1031.97 753.797C1001.12 730.746 1015.69 644.644 1057.73 598.542C1075.69 579.22 1100.44 566 1119.76 566C1132.98 566 1137.39 567.695 1147.22 577.186Z" fill="white"/>
</svg>
